<svg width="143" height="138" viewBox="0 0 143 138" fill="none" xmlns="http://www.w3.org/2000/svg">
<path d="M11.7986 67.5996L0.38501 66.8436L0.493711 65.4396L10.4942 66.0876L10.8203 61.0117L12.2334 61.1197L11.7986 67.5996Z" fill="#1C34BC"/>
<path d="M12.8322 52.6417C13.5387 53.7217 13.7561 54.8557 13.4844 56.0437C13.2126 57.2856 12.5604 58.2036 11.4734 58.9056C10.4407 59.6076 9.29939 59.7696 8.04933 59.5536C6.79927 59.2836 5.87531 58.6356 5.16876 57.5556C4.4622 56.5297 4.2448 55.3417 4.51655 54.1537C4.7883 52.9117 5.44051 51.9937 6.52752 51.2917C7.56017 50.5897 8.70153 50.3738 9.95159 50.6437C11.2017 50.9137 12.1256 51.5617 12.8322 52.6417ZM7.28842 52.4797C6.52752 52.9657 6.09271 53.6137 5.92966 54.4237C5.76661 55.2877 5.87531 56.0437 6.36446 56.7996C6.58187 57.1776 6.90797 57.4476 7.23407 57.6636C7.56017 57.8796 7.94063 58.0416 8.37543 58.1496C9.19069 58.3116 10.0059 58.2036 10.7125 57.7176C11.4191 57.2316 11.9082 56.5837 12.0713 55.7197C12.2343 54.8557 12.1256 54.0997 11.6365 53.3977C11.1473 52.6957 10.4951 52.2097 9.67984 52.0477C8.86458 51.8857 8.04933 51.9937 7.28842 52.4797Z" fill="#1C34BC"/>
<path d="M9.13635 43.946C9.02765 44.054 8.9733 44.162 8.91895 44.324C8.7559 44.918 8.7559 45.512 9.02765 46.052C9.2994 46.646 9.7342 47.024 10.3321 47.24L15.1692 48.9679L14.6801 50.2639L6.63623 47.402L7.07103 46.052L7.99499 46.43C7.45149 45.512 7.34279 44.54 7.72324 43.568C7.72324 43.514 7.77759 43.406 7.83194 43.352C7.88629 43.244 7.88629 43.19 7.94064 43.082L9.4081 43.622C9.2994 43.73 9.1907 43.838 9.13635 43.946Z" fill="#1C34BC"/>
<path d="M17.4515 35.524L13.9731 42.1659C14.6797 42.3279 15.3319 42.2739 16.0384 42.0039C16.745 41.6799 17.2341 41.194 17.5602 40.6C17.995 39.736 18.0494 38.872 17.6689 37.954L18.919 37.252C19.2451 37.9 19.3538 38.548 19.3538 39.25C19.3538 39.952 19.1364 40.6 18.8103 41.248C18.2124 42.3279 17.3428 43.0839 16.0928 43.4619C14.9514 43.8399 13.7557 43.7319 12.6687 43.1919C11.5273 42.5979 10.8208 41.6799 10.4403 40.492C10.0599 39.304 10.1686 38.17 10.7121 37.036C11.3099 35.956 12.1795 35.2001 13.3752 34.8221C14.571 34.4441 15.7123 34.5521 16.8537 35.1461C17.1254 35.2541 17.2885 35.3621 17.4515 35.524ZM13.4839 36.28C12.8317 36.604 12.3426 37.09 11.9621 37.684C11.636 38.332 11.5817 39.034 11.6904 39.736C11.8534 40.492 12.1795 41.086 12.723 41.5179L15.5493 36.118C14.8427 35.956 14.1362 36.01 13.4839 36.28Z" fill="#1C34BC"/>
<path d="M27.9402 27.6416L23.9182 24.4557C23.4834 24.0777 22.9399 23.9157 22.3421 23.9157C21.7442 23.9157 21.2551 24.1317 20.8746 24.6177C20.5485 25.0497 20.4398 25.5357 20.5485 26.1297C20.6572 26.7236 20.9833 27.1556 21.4181 27.5336L25.4401 30.7196L24.5705 31.8536L20.5485 28.6676C20.1137 28.2896 19.5702 28.1276 18.9724 28.1276C18.3745 28.1276 17.8854 28.3436 17.5049 28.8296C17.1788 29.2616 17.0157 29.7476 17.1788 30.3416C17.2875 30.9356 17.6136 31.4216 18.0484 31.7456L22.0703 34.9315L21.2007 36.0115L14.5156 30.7196L15.3852 29.6396L16.1461 30.2336C15.8744 29.2616 16.0374 28.3976 16.6896 27.5876C17.3418 26.7236 18.2658 26.5077 19.4615 26.8316C18.9724 25.6977 19.0811 24.6717 19.842 23.7537C20.4398 22.9977 21.2551 22.5657 22.2877 22.5117C22.7769 22.5117 23.2117 22.5657 23.6465 22.6737C24.027 22.8357 24.4618 23.0517 24.8422 23.3757L28.8641 26.5617L27.9402 27.6416Z" fill="#1C34BC"/>
<path d="M30.3323 12.5754C30.2779 12.8454 30.1692 13.0614 29.9518 13.2234C29.6801 13.3854 29.4626 13.4934 29.1909 13.4394C28.9191 13.3854 28.7017 13.2774 28.5387 13.0614C28.3756 12.7914 28.3213 12.5754 28.3213 12.3054C28.3213 12.0354 28.4843 11.8194 28.7017 11.6574C28.9735 11.4954 29.1909 11.4414 29.4626 11.4414C29.7344 11.4954 29.9518 11.6034 30.1149 11.8194C30.2779 12.0354 30.3866 12.3054 30.3323 12.5754ZM35.2238 21.3772L30.0605 14.5734L31.2019 13.7094L36.3652 20.5133L35.2238 21.3772Z" fill="#1C34BC"/>
<path d="M43.9741 14.4635C43.7023 15.6515 43.0501 16.5694 42.0175 17.1634C40.7674 17.8654 39.5173 17.9194 38.1042 17.3254L40.3326 21.1054L39.1369 21.8074L33.3757 12.0335L34.5714 11.3315L35.3323 12.6815C35.4954 11.1695 36.1476 10.0895 37.3977 9.33355C38.4303 8.73956 39.5717 8.63156 40.713 9.00956C41.8544 9.33355 42.7784 10.0355 43.3762 11.1155C44.0284 12.1415 44.1915 13.2755 43.9741 14.4635ZM40.2239 10.4135C39.4086 10.1435 38.5934 10.2515 37.8868 10.6835C37.1259 11.1155 36.6368 11.7635 36.4194 12.6275C36.3107 13.0595 36.2563 13.4375 36.3107 13.8155C36.365 14.1935 36.5281 14.5715 36.7455 14.9495C37.1803 15.6515 37.8325 16.1374 38.6477 16.4074C39.463 16.6234 40.2782 16.5154 41.0391 16.0834C41.8 15.6515 42.2892 15.0035 42.4523 14.1935C42.6697 13.3295 42.561 12.5735 42.1262 11.8175C41.7457 11.1155 41.0935 10.6295 40.2239 10.4135Z" fill="#1C34BC"/>
<path d="M52.0175 11.8728C51.7458 12.1968 51.474 12.4668 51.1479 12.7368C50.8762 12.9528 50.4957 13.1688 50.0609 13.3308C49.6261 13.4928 49.2457 13.6008 48.8109 13.6548C48.3761 13.7088 47.9956 13.6548 47.6152 13.6008C46.6912 13.4388 46.0933 12.9528 45.7672 12.1968L47.126 11.6568C47.2891 12.0888 47.6695 12.3048 48.213 12.3048C48.5935 12.3048 49.0283 12.1968 49.5718 12.0348C50.8762 11.4948 51.3653 10.8468 51.0936 10.0908C50.8762 9.55085 50.2783 9.38885 49.3544 9.55085C48.4848 9.71284 47.8326 9.82084 47.3977 9.92884C46.9629 9.98284 46.6912 10.0368 46.6368 10.0368C45.6042 10.0368 44.8976 9.55085 44.5172 8.52486C44.1911 7.76888 44.2998 7.01289 44.8433 6.3109C45.2781 5.66291 45.9303 5.17692 46.7455 4.90692C47.5608 4.58293 48.3217 4.47493 49.0826 4.63693C50.0066 4.85292 50.6044 5.33892 50.8762 6.0949L49.5174 6.63489C49.4087 6.2029 49.0826 5.9869 48.5391 5.93291C48.1587 5.93291 47.7239 5.9869 47.2891 6.1489C46.7999 6.3109 46.4738 6.58089 46.202 6.85089C45.7672 7.28288 45.6585 7.66088 45.8216 8.03887C46.039 8.57886 46.6368 8.74086 47.6152 8.57886C48.4304 8.41686 49.0826 8.30887 49.5174 8.25487C49.9522 8.20087 50.224 8.14687 50.2783 8.14687C51.311 8.14687 52.0175 8.63286 52.398 9.60485C52.7241 10.3608 52.6154 11.1168 52.0175 11.8728Z" fill="#1C34BC"/>
<path d="M60.3876 10.0337L60.1702 9.11572C59.681 10.0877 58.9745 10.6817 57.9418 10.8977C57.0179 11.1137 56.0939 10.9517 55.2787 10.3577C54.5177 9.8177 53.9742 9.06172 53.7568 8.08973L52.6155 3.06782L53.9742 2.74382L55.1156 7.71174C55.2786 8.30573 55.6048 8.79172 56.1483 9.11572C56.6918 9.43971 57.2353 9.54771 57.8331 9.38571C58.431 9.22371 58.9201 8.89972 59.2462 8.35973C59.5723 7.81974 59.681 7.27975 59.518 6.63176L58.3766 1.66384L59.7897 1.33984L61.692 9.65571L60.3876 10.0337Z" fill="#1C34BC"/>
<path d="M74.0298 8.84806L73.8124 3.77214C73.8124 3.17815 73.595 2.69216 73.2145 2.26017C72.8341 1.77418 72.3449 1.55818 71.7471 1.61218C71.1492 1.61218 70.7144 1.88218 70.3339 2.36817C70.0078 2.80016 69.8448 3.34015 69.8448 3.93414L70.0622 9.01006L68.6491 9.06406L68.4317 3.98814C68.4317 3.39415 68.2143 2.90816 67.8338 2.47617C67.399 2.04417 66.9099 1.77418 66.3664 1.82818C65.7685 1.82818 65.3337 2.09817 64.9533 2.58416C64.6272 3.07016 64.4641 3.61015 64.4641 4.15014L64.6815 9.22605L63.2684 9.28005L62.8879 0.802193L64.3011 0.748194L64.3554 1.72018C64.8989 0.856192 65.7142 0.424199 66.7468 0.3702C67.8338 0.316201 68.6491 0.856192 69.1382 1.93617C69.6817 0.802193 70.497 0.208203 71.7471 0.154204C72.7254 0.100204 73.5406 0.424199 74.2472 1.18019C74.5733 1.50418 74.845 1.88218 75.0081 2.31417C75.1711 2.74616 75.2798 3.17815 75.2798 3.66415L75.4972 8.74006L74.0298 8.84806Z" fill="#1C34BC"/>
<path d="M90.6614 11.9274L91.0962 10.4694C89.9549 11.3874 88.7048 11.7114 87.2917 11.3334C86.096 11.0094 85.2807 10.3074 84.6829 9.1734C84.1394 8.09342 84.0307 7.01343 84.3568 5.82545C84.6829 4.63747 85.3894 3.71949 86.3677 3.0715C87.4004 2.42351 88.4874 2.26151 89.6831 2.58551C91.0419 2.9635 92.0202 3.82749 92.5093 5.23146L93.7051 1.01953L95.0638 1.39753L92.0202 12.3053L90.6614 11.9274ZM91.4767 5.50146C91.0419 4.74547 90.444 4.25948 89.6288 4.04348C88.8135 3.82749 87.9983 3.93548 87.2373 4.31348C86.8569 4.52947 86.5308 4.79947 86.3134 5.12346C86.096 5.44746 85.8786 5.77145 85.7699 6.20345C85.5525 7.01343 85.6612 7.82342 86.0416 8.57941C86.4764 9.33539 87.1286 9.82139 87.9439 10.0374C88.7592 10.2534 89.5744 10.1454 90.281 9.76739C91.0419 9.33539 91.531 8.68741 91.7484 7.87742C92.0202 7.01343 91.9115 6.25745 91.4767 5.50146Z" fill="#1C34BC"/>
<path d="M100.608 15.0581C99.4123 15.4901 98.2166 15.4361 97.1296 14.8961C95.9883 14.3562 95.2274 13.4922 94.7926 12.3042C94.3578 11.1162 94.4121 9.98222 94.9556 8.84824C95.4991 7.71426 96.3687 6.95827 97.5644 6.52628C98.7601 6.09428 99.9015 6.14828 101.043 6.68827C102.184 7.22827 102.945 8.09225 103.38 9.28023C103.815 10.4682 103.76 11.6022 103.217 12.7362C102.673 13.8702 101.804 14.6261 100.608 15.0581ZM102.021 9.71222C101.749 8.90224 101.206 8.30825 100.445 7.93025C99.6841 7.55226 98.8688 7.49826 98.0536 7.82226C97.6188 7.98425 97.2927 8.20025 97.0209 8.41625C96.7492 8.68624 96.4774 9.01024 96.3144 9.38823C95.9339 10.1442 95.9339 10.9542 96.2057 11.7642C96.4774 12.5742 97.0209 13.1682 97.8362 13.5462C98.6514 13.9242 99.4123 13.9782 100.228 13.6542C101.043 13.3842 101.641 12.8442 102.021 12.0342C102.239 11.3322 102.293 10.5222 102.021 9.71222Z" fill="#1C34BC"/>
<path d="M102.51 17.4354L108.488 7.76953L109.684 8.52552L103.705 18.1914L102.51 17.4354Z" fill="#1C34BC"/>
<path d="M111.804 22.7266C110.499 22.8886 109.412 22.5646 108.434 21.8086C107.456 21.0526 106.858 20.0266 106.749 18.7846C106.586 17.5427 106.912 16.4087 107.673 15.4367C108.434 14.4647 109.467 13.8707 110.717 13.7087C111.967 13.5467 113.108 13.8707 114.086 14.6267C115.065 15.3827 115.662 16.4087 115.826 17.6507C115.989 18.8926 115.662 20.0266 114.902 20.9986C114.086 22.0246 113.054 22.5646 111.804 22.7266ZM114.358 17.8667C114.249 17.0027 113.869 16.3007 113.217 15.8147C112.51 15.2747 111.749 15.0587 110.88 15.1667C110.445 15.2207 110.064 15.3287 109.738 15.5447C109.412 15.7607 109.086 15.9767 108.814 16.3547C108.271 17.0027 108.053 17.7587 108.162 18.6226C108.271 19.4866 108.651 20.1886 109.358 20.6746C110.064 21.2146 110.825 21.4306 111.641 21.3226C112.51 21.2146 113.217 20.8366 113.76 20.1346C114.249 19.4866 114.467 18.7306 114.358 17.8667Z" fill="#1C34BC"/>
<path d="M121.26 23.1588C121.206 23.0508 121.097 22.9428 120.989 22.8348C120.554 22.4029 120.01 22.1329 119.358 22.1329C118.706 22.1329 118.162 22.3489 117.728 22.7808L114.086 26.3448L113.108 25.3188L119.195 19.3789L120.173 20.4049L119.467 21.1069C120.554 20.9989 121.424 21.3229 122.184 22.0789C122.239 22.1329 122.293 22.1869 122.347 22.2409C122.402 22.2949 122.456 22.4029 122.511 22.4569L121.424 23.5368C121.369 23.4288 121.315 23.2668 121.26 23.1588Z" fill="#1C34BC"/>
<path d="M124.522 39.4675C124.141 39.2515 123.815 39.0355 123.543 38.7655C123.272 38.4955 123 38.1715 122.728 37.7935C122.511 37.4155 122.293 37.0375 122.185 36.6055C122.076 36.1735 122.021 35.7955 122.021 35.4175C122.021 34.4996 122.402 33.7976 123.108 33.3656L123.869 34.5536C123.489 34.7696 123.326 35.2016 123.435 35.7415C123.489 36.0655 123.652 36.4975 123.978 36.9835C124.739 38.1715 125.446 38.6035 126.098 38.1715C126.587 37.9015 126.641 37.2535 126.315 36.3895C126.043 35.5795 125.826 34.9856 125.663 34.5536C125.5 34.1216 125.446 33.9056 125.391 33.7976C125.228 32.7716 125.609 32.0156 126.478 31.4756C127.185 31.0436 127.946 31.0436 128.761 31.4216C129.467 31.7456 130.065 32.2856 130.5 33.0416C130.935 33.7976 131.152 34.5536 131.152 35.3096C131.098 36.2275 130.772 36.8755 130.065 37.3075L129.304 36.0655C129.685 35.8495 129.794 35.4715 129.739 34.9856C129.685 34.6076 129.522 34.2296 129.304 33.7976C129.033 33.3656 128.761 33.0416 128.435 32.8256C128.054 32.5556 127.62 32.5556 127.293 32.7716C126.804 33.0956 126.75 33.6896 127.076 34.6076C127.348 35.4175 127.565 36.0115 127.728 36.4435C127.891 36.8755 127.946 37.0915 127.946 37.1455C128.109 38.1715 127.783 38.9275 126.859 39.4675C126.152 39.8995 125.337 39.8995 124.522 39.4675Z" fill="#1C34BC"/>
<path d="M125.555 42.2196L133.272 38.5476L133.87 39.8436L126.153 43.5155L125.555 42.2196ZM135.175 39.2496C134.903 39.1416 134.74 38.9796 134.631 38.7096C134.523 38.4396 134.468 38.2236 134.523 37.9536C134.577 37.6836 134.794 37.5216 135.012 37.4136C135.229 37.3057 135.501 37.2517 135.773 37.3596C136.044 37.4676 136.207 37.6296 136.316 37.8456C136.425 38.0616 136.479 38.3316 136.37 38.6016C136.262 38.8716 136.099 39.0336 135.881 39.1956C135.664 39.3576 135.392 39.3036 135.175 39.2496Z" fill="#1C34BC"/>
<path d="M134.576 45.1356L125.282 48.6996L124.738 47.3496L134.032 43.7857L133.434 42.2197L134.793 41.6797L135.391 43.2457L137.239 42.5437L137.728 43.8937L135.88 44.5956L136.478 46.1616L135.174 46.7016L134.576 45.1356Z" fill="#1C34BC"/>
<path d="M131.532 63.6046L142.946 63.2266L143 64.6305L133 64.9545L133.163 70.0305L131.75 70.0845L131.532 63.6046Z" fill="#1C34BC"/>
<path d="M131.967 78.6688C131.152 77.6428 130.826 76.5628 130.989 75.3209C131.152 74.0789 131.695 73.0529 132.728 72.2969C133.706 71.5409 134.848 71.2169 136.098 71.3249C137.348 71.4869 138.38 72.0269 139.141 72.9989C139.902 73.9709 140.228 75.1049 140.12 76.3468C139.957 77.5888 139.413 78.6148 138.435 79.3708C137.456 80.1268 136.315 80.4508 135.065 80.3428C133.761 80.1808 132.728 79.6408 131.967 78.6688ZM137.456 78.2368C138.163 77.6968 138.543 76.9948 138.652 76.1848C138.761 75.3209 138.543 74.5649 138 73.8629C137.728 73.5389 137.402 73.2689 137.076 73.0529C136.75 72.8369 136.369 72.7289 135.88 72.6749C135.065 72.5669 134.25 72.7829 133.598 73.3229C132.945 73.8629 132.511 74.5649 132.456 75.4289C132.348 76.2928 132.565 77.0488 133.108 77.6968C133.652 78.3988 134.358 78.7768 135.228 78.8848C136.043 79.0468 136.804 78.7768 137.456 78.2368Z" fill="#1C34BC"/>
<path d="M136.533 86.8763C136.587 86.7683 136.641 86.6063 136.696 86.4983C136.859 85.9043 136.75 85.3103 136.424 84.7703C136.098 84.2303 135.609 83.9063 135.011 83.7443L130.01 82.5023L130.337 81.1523L138.652 83.2043L138.326 84.5543L137.402 84.3383C138.054 85.2023 138.272 86.1203 138 87.1463C138 87.2003 137.946 87.3082 137.946 87.4162C137.946 87.5242 137.891 87.5782 137.837 87.6862L136.315 87.3082C136.369 87.0922 136.478 86.9842 136.533 86.8763Z" fill="#1C34BC"/>
<path d="M129.086 96.001L131.858 89.0351C131.152 88.9271 130.5 89.0351 129.847 89.4131C129.195 89.7911 128.76 90.3311 128.489 90.9791C128.108 91.897 128.162 92.761 128.652 93.625L127.51 94.435C127.13 93.841 126.912 93.193 126.858 92.491C126.804 91.7891 126.912 91.0871 127.184 90.4391C127.619 89.3051 128.489 88.4411 129.63 87.9551C130.771 87.4691 131.967 87.4151 133.108 87.9011C134.304 88.3871 135.119 89.1971 135.608 90.3311C136.098 91.4651 136.098 92.653 135.663 93.787C135.228 94.921 134.413 95.785 133.217 96.271C132.076 96.757 130.88 96.811 129.739 96.325C129.467 96.217 129.304 96.109 129.086 96.001ZM133 94.759C133.652 94.381 134.087 93.895 134.358 93.193C134.63 92.545 134.63 91.8431 134.467 91.1411C134.25 90.4391 133.869 89.8991 133.271 89.5211L130.989 95.137C131.695 95.299 132.347 95.137 133 94.759Z" fill="#1C34BC"/>
<path d="M119.412 104.913L123.706 107.721C124.195 108.045 124.739 108.153 125.337 108.099C125.934 108.045 126.424 107.775 126.75 107.289C127.076 106.803 127.13 106.263 126.967 105.723C126.804 105.183 126.478 104.751 125.934 104.427L121.641 101.619L122.402 100.431L126.695 103.185C127.184 103.509 127.728 103.617 128.271 103.563C128.869 103.509 129.358 103.239 129.685 102.753C130.011 102.267 130.065 101.727 129.902 101.187C129.685 100.647 129.358 100.161 128.869 99.8912L124.576 97.1372L125.337 95.9492L132.511 100.593L131.75 101.781L130.935 101.241C131.315 102.213 131.206 103.077 130.663 103.941C130.065 104.859 129.195 105.183 128 104.967C128.598 106.047 128.598 107.073 127.945 108.099C127.402 108.909 126.641 109.395 125.663 109.557C125.173 109.611 124.739 109.611 124.304 109.503C123.869 109.395 123.434 109.233 122.999 108.963L118.706 106.209L119.412 104.913Z" fill="#1C34BC"/>
<path d="M112.837 111.879L118.652 118.143L117.619 119.115L111.804 112.851L112.837 111.879ZM118.543 120.141C118.543 119.871 118.652 119.655 118.87 119.439C119.087 119.223 119.304 119.169 119.576 119.169C119.848 119.169 120.065 119.277 120.283 119.493C120.5 119.709 120.554 119.925 120.554 120.195C120.554 120.465 120.446 120.681 120.228 120.897C120.011 121.113 119.793 121.167 119.522 121.167C119.25 121.167 119.033 121.059 118.815 120.843C118.598 120.627 118.543 120.411 118.543 120.141Z" fill="#1C34BC"/>
<path d="M104.846 119.6C104.955 118.358 105.499 117.386 106.531 116.684C107.673 115.874 108.977 115.658 110.39 116.144L107.781 112.634L108.923 111.824L115.662 121.004L114.521 121.814L113.597 120.572C113.597 122.03 113.053 123.218 111.912 124.028C110.934 124.73 109.847 124.946 108.651 124.73C107.455 124.46 106.477 123.866 105.77 122.894C105.009 121.868 104.683 120.788 104.846 119.6ZM108.923 123.272C109.792 123.434 110.553 123.218 111.26 122.732C111.966 122.246 112.401 121.544 112.51 120.68C112.564 120.248 112.564 119.87 112.455 119.492C112.347 119.114 112.184 118.736 111.912 118.412C111.423 117.71 110.716 117.332 109.847 117.17C108.977 117.062 108.216 117.224 107.51 117.764C106.803 118.25 106.368 118.952 106.26 119.816C106.096 120.68 106.314 121.436 106.803 122.138C107.401 122.678 108.053 123.11 108.923 123.272Z" fill="#1C34BC"/>
<path d="M97.0746 122.894C97.292 122.57 97.5637 122.246 97.8355 121.976C98.1072 121.706 98.4877 121.49 98.8681 121.274C99.2486 121.058 99.6834 120.95 100.064 120.842C100.444 120.788 100.879 120.734 101.26 120.734C102.184 120.842 102.836 121.22 103.216 121.976L101.966 122.624C101.749 122.192 101.368 122.03 100.825 122.084C100.499 122.084 100.064 122.246 99.5203 122.516C98.2703 123.164 97.7811 123.866 98.1616 124.568C98.4333 125.054 99.0312 125.162 99.9551 124.892C100.77 124.676 101.423 124.46 101.857 124.352C102.292 124.244 102.564 124.19 102.618 124.136C103.651 124.028 104.412 124.46 104.901 125.432C105.281 126.134 105.227 126.89 104.792 127.7C104.412 128.402 103.868 128.888 103.053 129.32C102.292 129.698 101.531 129.86 100.716 129.752C99.7921 129.644 99.1943 129.266 98.8138 128.51L100.064 127.862C100.281 128.24 100.607 128.402 101.151 128.402C101.531 128.402 101.966 128.294 102.401 128.024C102.836 127.808 103.162 127.538 103.434 127.214C103.76 126.782 103.814 126.404 103.651 126.026C103.379 125.54 102.781 125.378 101.857 125.648C101.042 125.864 100.39 126.08 99.9551 126.188C99.5203 126.296 99.2486 126.35 99.1942 126.35C98.1616 126.458 97.4007 126.026 96.9115 125.108C96.5311 124.514 96.5854 123.704 97.0746 122.894Z" fill="#1C34BC"/>
<path d="M88.8672 125.593L89.1933 126.511C89.5737 125.485 90.2259 124.837 91.2042 124.513C92.1282 124.189 92.9978 124.297 93.9217 124.783C94.737 125.269 95.3349 125.971 95.661 126.889L97.2915 131.749L95.9327 132.181L94.3022 127.321C94.0848 126.727 93.7043 126.295 93.1608 126.025C92.6173 125.755 92.0195 125.701 91.4216 125.917C90.8238 126.133 90.389 126.511 90.1172 127.051C89.8455 127.591 89.7911 128.185 90.0085 128.779L91.639 133.585L90.2803 134.017L87.5627 125.971L88.8672 125.593Z" fill="#1C34BC"/>
<path d="M75.3885 128.132L76.0951 133.208C76.2038 133.802 76.4212 134.288 76.856 134.666C77.2908 135.098 77.8343 135.26 78.3778 135.152C78.9757 135.044 79.4105 134.774 79.6822 134.234C80.0083 133.748 80.117 133.208 80.0083 132.614L79.3018 127.538L80.7149 127.322L81.4214 132.398C81.5301 132.992 81.7475 133.478 82.1823 133.856C82.6171 134.288 83.1606 134.45 83.7042 134.342C84.302 134.288 84.7368 133.964 85.0629 133.478C85.3347 132.992 85.4977 132.398 85.389 131.858L84.6825 126.782L86.0956 126.566L87.3456 135.044L85.9325 135.26L85.8238 134.288C85.3347 135.206 84.6281 135.692 83.5955 135.854C82.5084 136.016 81.6932 135.584 81.041 134.558C80.6062 135.746 79.8453 136.394 78.6496 136.556C77.6713 136.718 76.8017 136.448 76.0407 135.8C75.6603 135.476 75.3885 135.152 75.1711 134.72C74.9537 134.288 74.7907 133.856 74.7363 133.37L74.0298 128.294L75.3885 128.132Z" fill="#1C34BC"/>
<path d="M58.5943 126.673L58.3226 128.185C59.3552 127.159 60.6053 126.727 62.0184 126.997C63.2141 127.213 64.1381 127.807 64.7903 128.887C65.4425 129.859 65.6599 130.993 65.4425 132.181C65.2251 133.369 64.6272 134.341 63.7033 135.097C62.725 135.853 61.638 136.123 60.4422 135.907C59.0291 135.691 57.9965 134.881 57.3986 133.531L56.6377 137.851L55.2246 137.635L57.1812 126.457L58.5943 126.673ZM58.4313 133.207C58.9204 133.909 59.5726 134.341 60.4422 134.503C61.3119 134.665 62.0728 134.449 62.7793 133.963C63.1598 133.693 63.4315 133.423 63.6489 133.099C63.8663 132.775 64.0294 132.397 64.0837 131.965C64.2468 131.155 64.0294 130.345 63.5402 129.643C63.0511 128.941 62.3445 128.509 61.4749 128.347C60.6053 128.185 59.8444 128.347 59.1378 128.887C58.4313 129.373 57.9965 130.075 57.8334 130.885C57.7247 131.695 57.9421 132.505 58.4313 133.207Z" fill="#1C34BC"/>
<path d="M48.2676 124.569C49.4633 124.029 50.6046 123.975 51.746 124.353C52.9417 124.785 53.8113 125.541 54.3548 126.675C54.8983 127.809 54.9527 128.943 54.5179 130.131C54.0831 131.319 53.3221 132.183 52.1808 132.723C51.0394 133.263 49.8981 133.317 48.7024 132.885C47.5067 132.453 46.637 131.697 46.0935 130.563C45.55 129.429 45.4957 128.295 45.9305 127.107C46.3653 125.919 47.1262 125.055 48.2676 124.569ZM47.4523 129.969C47.8328 130.779 48.3763 131.265 49.1915 131.589C50.0068 131.859 50.822 131.859 51.5829 131.481C51.9634 131.265 52.2895 131.049 52.5612 130.779C52.833 130.509 53.0504 130.131 53.1591 129.699C53.4308 128.889 53.3765 128.133 53.0504 127.323C52.6699 126.567 52.0721 126.027 51.2568 125.703C50.4416 125.433 49.6263 125.433 48.8654 125.811C48.0502 126.189 47.5067 126.783 47.2349 127.593C47.0175 128.403 47.0719 129.159 47.4523 129.969Z" fill="#1C34BC"/>
<path d="M46.2026 122.356L41.148 132.562L39.8979 131.968L44.8982 121.762L46.2026 122.356Z" fill="#1C34BC"/>
<path d="M36.4732 118.036C37.7233 117.766 38.8646 117.982 39.8973 118.63C40.93 119.278 41.6365 120.25 41.9083 121.492C42.18 122.733 41.9626 123.867 41.3104 124.893C40.6582 125.973 39.6799 126.621 38.4298 126.891C37.1798 127.161 36.0384 126.945 35.0058 126.297C33.9731 125.649 33.2665 124.677 32.9948 123.435C32.723 122.194 32.9404 121.06 33.5926 120.034C34.2992 119.008 35.2232 118.306 36.4732 118.036ZM34.4079 123.165C34.571 124.029 35.0601 124.677 35.7667 125.109C36.5276 125.541 37.2885 125.703 38.1581 125.541C38.5929 125.433 38.9733 125.271 39.2994 125.055C39.6255 124.839 39.8973 124.515 40.1147 124.137C40.5495 123.435 40.7126 122.626 40.5495 121.816C40.3865 120.952 39.8973 120.304 39.1364 119.872C38.4298 119.386 37.6146 119.224 36.7993 119.44C35.9297 119.656 35.2775 120.088 34.8427 120.79C34.3536 121.492 34.2449 122.302 34.4079 123.165Z" fill="#1C34BC"/>
<path d="M27.0164 118.521C27.1251 118.629 27.1795 118.737 27.2882 118.845C27.7773 119.223 28.3208 119.439 28.973 119.385C29.6252 119.331 30.1144 119.061 30.4948 118.575L33.8102 114.688L34.8972 115.605L29.4078 122.139L28.3208 121.221L28.973 120.465C27.9404 120.681 27.0164 120.465 26.2012 119.763C26.1468 119.709 26.0925 119.655 25.9838 119.601C25.9294 119.547 25.8207 119.493 25.7664 119.385L26.7447 118.197C26.8534 118.305 26.9077 118.413 27.0164 118.521Z" fill="#1C34BC"/>
<path d="M22.07 102.427C22.4505 102.589 22.7766 102.805 23.1027 103.021C23.4288 103.237 23.7005 103.561 23.9723 103.939C24.244 104.317 24.4614 104.695 24.6245 105.073C24.7875 105.451 24.8419 105.829 24.8962 106.207C24.9506 107.125 24.6788 107.827 24.0266 108.367L23.157 107.233C23.5375 106.963 23.6462 106.531 23.4831 105.991C23.3744 105.667 23.2114 105.235 22.8309 104.803C21.9613 103.669 21.2548 103.345 20.6026 103.831C20.1678 104.155 20.1134 104.749 20.5482 105.667C20.9287 106.423 21.2004 107.017 21.3635 107.449C21.5265 107.881 21.6352 108.097 21.6896 108.151C21.9613 109.123 21.6896 109.933 20.82 110.581C20.1678 111.067 19.4068 111.175 18.5372 110.851C17.8307 110.581 17.1785 110.095 16.6893 109.393C16.2002 108.691 15.8741 107.989 15.8197 107.179C15.7654 106.261 16.0371 105.559 16.7437 105.073L17.6133 106.207C17.2872 106.477 17.1785 106.855 17.2872 107.341C17.3415 107.719 17.5589 108.097 17.8307 108.475C18.1024 108.853 18.4285 109.177 18.809 109.339C19.2438 109.609 19.6786 109.609 20.0047 109.339C20.4395 109.015 20.4939 108.367 20.0591 107.503C19.6786 106.747 19.4068 106.153 19.2438 105.721C19.0807 105.289 18.8633 105.181 18.8633 105.127C18.5916 104.155 18.8633 103.345 19.733 102.697C20.3852 102.211 21.2004 102.103 22.07 102.427Z" fill="#1C34BC"/>
<path d="M11.6357 103.942C11.9074 103.996 12.1248 104.158 12.2335 104.428C12.3966 104.644 12.3966 104.914 12.3422 105.184C12.2879 105.454 12.1248 105.616 11.9074 105.778C11.69 105.94 11.4183 105.994 11.1465 105.886C10.8748 105.778 10.6574 105.67 10.5487 105.454C10.3856 105.238 10.3856 104.968 10.44 104.698C10.4943 104.428 10.6574 104.212 10.8748 104.104C11.0922 103.942 11.3639 103.888 11.6357 103.942ZM20.8753 100L13.538 104.428L12.777 103.24L20.1144 98.8125L20.8753 100Z" fill="#1C34BC"/>
<path d="M11.6357 98.0562L20.5491 93.5742L21.2013 94.8702L12.2879 99.3521L13.0488 100.864L11.7987 101.458L11.0378 99.9461L9.24425 100.864L8.59204 99.5681L10.3856 98.6501L9.6247 97.1382L10.9291 96.4902L11.6357 98.0562Z" fill="#1C34BC"/>
</svg>
