<svg width="56" height="48" viewBox="0 0 56 48" fill="none" xmlns="http://www.w3.org/2000/svg">
<path d="M38.594 5.08984C40.1296 5.08984 41.5753 5.38198 42.9312 5.96627C44.287 6.55055 45.463 7.35206 46.4743 8.35583C47.4856 9.35959 48.2796 10.5506 48.8639 11.899C49.4481 13.2548 49.7403 14.7005 49.7403 16.2361C49.7403 17.7268 49.4556 19.15 48.8938 20.5059C48.332 21.8617 47.523 23.0602 46.4668 24.1164L27.6649 42.9483L8.86307 24.1164C7.80687 23.0602 6.99787 21.8617 6.43606 20.5059C5.87425 19.15 5.5896 17.7343 5.5896 16.2361C5.5896 14.7005 5.88174 13.2548 6.46602 11.899C7.0503 10.5431 7.85182 9.36708 8.85558 8.35583C9.85935 7.34457 11.0504 6.55055 12.4062 5.96627C13.7546 5.38198 15.2003 5.08984 16.7359 5.08984C17.9344 5.08984 19.0056 5.23966 19.9494 5.53929C20.8933 5.83892 21.7622 6.24342 22.5637 6.76029C23.3577 7.26966 24.1218 7.86892 24.8334 8.55059C25.545 9.23225 26.2791 9.95885 27.0282 10.7379L27.6649 11.3971L28.3691 10.6705C29.1182 9.90642 29.8448 9.1873 30.5564 8.50564C31.268 7.82398 32.0171 7.23221 32.8036 6.73033C33.5902 6.22844 34.4591 5.82394 35.3954 5.5318C36.3318 5.23966 37.3955 5.08984 38.594 5.08984Z" fill="#1C34BC"/>
</svg>
