<svg width="31" height="31" viewBox="0 0 31 31" fill="none" xmlns="http://www.w3.org/2000/svg">
<path d="M21 6.5C21 9.53757 18.5376 12 15.5 12C12.4624 12 10 9.53757 10 6.5C10 3.46243 12.4624 1 15.5 1C18.5376 1 21 3.46243 21 6.5Z" stroke="white" stroke-width="1.8"/>
<path d="M29.3929 19.6563C27.49 25.7338 21.9752 30.1 15.5 30.1C9.0248 30.1 3.51001 25.7338 1.60713 19.6563C1.29987 18.675 1.56626 17.7707 2.19475 17.0802C2.83762 16.3739 3.86134 15.9 5 15.9H26C27.1387 15.9 28.1624 16.3739 28.8052 17.0802C29.4337 17.7707 29.7001 18.675 29.3929 19.6563Z" stroke="white" stroke-width="1.8"/>
</svg>
