<?xml version="1.0" encoding="utf-8"?>
<!-- Generator: Adobe Illustrator 25.4.1, SVG Export Plug-In . SVG Version: 6.00 Build 0)  -->
<svg version="1.1" id="Layer_1" xmlns="http://www.w3.org/2000/svg" xmlns:xlink="http://www.w3.org/1999/xlink" x="0px" y="0px"
	 viewBox="0 0 25 25" style="enable-background:new 0 0 25 25;" xml:space="preserve">
<style type="text/css">
	.st0{fill:#DC272D;}
</style>
<path class="st0" d="M19.8,0H5.2C2.3,0,0,2.3,0,5.2v14.6C0,22.7,2.3,25,5.2,25h14.6c2.9,0,5.2-2.3,5.2-5.2V5.2C25,2.3,22.7,0,19.8,0
	z M12.5,17.4c-0.5,0-1,0-1.4-0.1c-0.8,0.6-1.8,1.2-2.6,1.8c0,0-0.2,0.1-0.3,0C8,19,8,18.9,8,18.8c0.2-0.6,0.4-1.5,0.6-2.3
	c-2-1-3.2-2.8-3.2-4.9c0-0.6,0.1-1.2,0.4-1.8c0,0,0-0.1,0-0.1c0,0,0,0,0,0c1-2.3,3.6-3.9,6.8-3.9c4,0,7.2,2.6,7.2,5.8
	C19.6,14.8,16.4,17.4,12.5,17.4z"/>
</svg>
