<svg width="32" height="32" viewBox="0 0 32 32" fill="none" xmlns="http://www.w3.org/2000/svg">
<path d="M16 31C24.2843 31 31 24.2843 31 16C31 7.71573 24.2843 1 16 1C7.71573 1 1 7.71573 1 16C1 24.2843 7.71573 31 16 31Z" stroke="#DC272D" stroke-width="1.8" stroke-miterlimit="10"/>
<path d="M23.9001 16C23.9001 24.3 20.3001 31 16.0001 31C11.6001 31 8.1001 24.3 8.1001 16C8.1001 7.7 11.7001 1 16.0001 1C20.4001 1 23.9001 7.7 23.9001 16Z" stroke="#DC272D" stroke-width="1.8" stroke-miterlimit="10"/>
<path d="M2 10.6992H30" stroke="#DC272D" stroke-width="1.8" stroke-miterlimit="10"/>
<path d="M30 21.3008H2" stroke="#DC272D" stroke-width="1.8" stroke-miterlimit="10"/>
<path d="M16 31V1" stroke="#DC272D" stroke-width="1.8" stroke-miterlimit="10"/>
</svg>
