<svg width="22" height="20" viewBox="0 0 22 20" fill="none" xmlns="http://www.w3.org/2000/svg">
<path d="M21.15 0.453125H0.85C0.380558 0.453125 0 0.833683 0 1.30313C0 1.77257 0.380558 2.15313 0.850001 2.15313H21.15C21.6194 2.15313 22 1.77257 22 1.30313C22 0.833683 21.6194 0.453125 21.15 0.453125Z" fill="#DC272D"/>
<path d="M21.15 9.15234H0.85C0.380558 9.15234 0 9.5329 0 10.0023C0 10.4718 0.380558 10.8523 0.850001 10.8523H21.15C21.6194 10.8523 22 10.4718 22 10.0023C22 9.5329 21.6194 9.15234 21.15 9.15234Z" fill="#DC272D"/>
<path d="M21.15 17.8516H0.85C0.380558 17.8516 0 18.2321 0 18.7016C0 19.171 0.380558 19.5516 0.850001 19.5516H21.15C21.6194 19.5516 22 19.171 22 18.7016C22 18.2321 21.6194 17.8516 21.15 17.8516Z" fill="#DC272D"/>
</svg>
