<svg width="25" height="25" viewBox="0 0 25 25" fill="none" xmlns="http://www.w3.org/2000/svg">
<path fill-rule="evenodd" clip-rule="evenodd" d="M6.25 0H18.75C22.2018 0 25 2.79822 25 6.25V18.75C25 22.2018 22.2018 25 18.75 25H6.25C2.79822 25 0 22.2018 0 18.75V6.25C0 2.79822 2.79822 0 6.25 0ZM22.0001 5.7499C22.0001 6.44026 21.4404 6.9999 20.7501 6.9999C20.0597 6.9999 19.5001 6.44026 19.5001 5.7499C19.5001 5.05955 20.0597 4.4999 20.7501 4.4999C21.4404 4.4999 22.0001 5.05955 22.0001 5.7499ZM12.4998 8.7502C10.4287 8.7502 8.7498 10.4291 8.7498 12.5002C8.7498 14.5713 10.4287 16.2502 12.4998 16.2502C14.5709 16.2502 16.2498 14.5713 16.2498 12.5002C16.2498 10.4291 14.5709 8.7502 12.4998 8.7502ZM6.2498 12.5002C6.2498 9.04842 9.04803 6.2502 12.4998 6.2502C15.9516 6.2502 18.7498 9.04842 18.7498 12.5002C18.7498 15.952 15.9516 18.7502 12.4998 18.7502C9.04803 18.7502 6.2498 15.952 6.2498 12.5002Z" fill="#DC272D"/>
</svg>
