<svg width="194" height="35" viewBox="0 0 194 35" fill="none" xmlns="http://www.w3.org/2000/svg">
<g clip-path="url(#clip0_1247:250)">
<path d="M14.2013 5.85532V34.1822H9.55855V5.85532H0V0.816406H23.7598V5.85532H14.2013Z" fill="#DC272D"/>
<path d="M53.528 29.8249C50.319 33.2296 46.5639 34.9319 42.2626 34.9319C37.8929 34.9319 34.1378 33.2296 30.9971 29.8249C27.8565 26.4202 26.2861 22.2665 26.2861 17.5C26.2861 12.7335 27.8565 8.64786 30.9971 5.1751C34.1378 1.70233 37.8929 0 42.2626 0C46.5639 0 50.319 1.70233 53.528 5.107C56.6687 8.57976 58.239 12.7335 58.239 17.4319C58.239 22.3346 56.6687 26.4202 53.528 29.8249ZM50.319 8.64786C48.066 6.26459 45.4032 5.03891 42.2626 5.03891C39.1219 5.03891 36.3909 6.26459 34.2061 8.64786C31.953 11.1673 30.8606 14.0953 30.8606 17.5C30.8606 20.9047 31.953 23.8327 34.2061 26.3521C36.4592 28.8035 39.1902 30.0292 42.2626 30.0292C45.3349 30.0292 48.066 28.8035 50.319 26.3521C52.5039 23.9008 53.5963 20.9728 53.5963 17.5C53.6645 14.0953 52.5721 11.0992 50.319 8.64786Z" fill="#DC272D"/>
<path d="M90.1232 29.8266C86.9143 33.2313 83.1591 34.9336 78.8578 34.9336C74.4882 34.9336 70.6647 33.2313 67.5241 29.8266C64.4517 26.3538 62.8813 22.2001 62.8813 17.4336C62.8813 12.6671 64.4517 8.58145 67.5923 5.10869C70.733 1.63593 74.4882 -0.0664062 78.8578 -0.0664062C83.2274 -0.0664062 87.1191 1.77211 90.4646 5.44916L87.1874 8.85383C84.7977 6.26628 81.9984 4.9725 78.8578 4.9725C75.7171 4.9725 72.9861 6.19818 70.8013 8.58145C68.5482 11.1009 67.4558 14.0289 67.4558 17.4336C67.4558 20.8383 68.5482 23.7663 70.8013 26.2857C73.0544 28.7371 75.7854 29.9628 78.8578 29.9628C81.9302 29.9628 84.7294 28.669 87.1874 26.0134L90.1232 29.1456V29.8266Z" fill="#DC272D"/>
<path d="M122.691 29.8232C119.482 33.2279 115.727 34.9302 111.426 34.9302C107.056 34.9302 103.301 33.2279 100.16 29.8232C97.0195 26.4185 95.4492 22.2648 95.4492 17.4983C95.4492 12.7318 97.0195 8.64617 100.16 5.17341C103.301 1.76874 107.056 0.0664062 111.426 0.0664062C115.727 0.0664062 119.482 1.76874 122.691 5.17341C125.832 8.64617 127.402 12.7999 127.402 17.4983C127.402 22.3329 125.832 26.4185 122.691 29.8232ZM119.482 8.64617C117.229 6.2629 114.566 5.03722 111.426 5.03722C108.285 5.03722 105.554 6.2629 103.369 8.64617C101.116 11.1656 100.024 14.0936 100.024 17.4983C100.024 20.903 101.116 23.831 103.369 26.3504C105.622 28.8018 108.353 30.0275 111.426 30.0275C114.498 30.0275 117.229 28.8018 119.482 26.3504C121.667 23.8991 122.759 20.9711 122.759 17.4983C122.828 14.0936 121.735 11.0975 119.482 8.64617Z" fill="#DC272D"/>
<path d="M155.668 28.3942C155.19 29.5518 154.439 30.5732 153.415 31.5265C151.435 33.2969 149.182 34.1822 146.724 34.1822H133V0.816406H145.973C148.499 0.816406 150.752 1.70162 152.664 3.40395C154.644 5.31057 155.668 7.62574 155.668 10.4176C155.668 13.5499 154.371 15.7969 151.845 17.295C154.849 18.6569 156.351 21.1082 156.351 24.581C156.419 26.011 156.146 27.2366 155.668 28.3942ZM149.523 7.081C148.499 6.26388 147.338 5.85532 146.041 5.85532H137.575V14.9798H146.041C147.338 14.9798 148.499 14.5713 149.523 13.7541C150.547 12.8689 151.093 11.7794 151.093 10.4176C151.093 9.05571 150.547 7.96621 149.523 7.081ZM150.206 21.2444C149.25 20.4273 148.021 20.0187 146.724 20.0187H137.575V29.2113H146.724C148.089 29.2113 149.25 28.8028 150.206 27.9857C151.298 27.1685 151.776 26.0791 151.776 24.6491C151.845 23.2191 151.298 22.1296 150.206 21.2444Z" fill="#DC272D"/>
<path d="M188.85 29.8232C185.641 33.2279 181.886 34.9302 177.584 34.9302C173.215 34.9302 169.46 33.2279 166.319 29.8232C163.178 26.4185 161.608 22.2648 161.608 17.4983C161.608 12.7318 163.178 8.64617 166.319 5.17341C169.46 1.76874 173.215 0.0664062 177.584 0.0664062C181.886 0.0664062 185.641 1.76874 188.85 5.17341C191.99 8.64617 193.561 12.7999 193.561 17.4983C193.561 22.3329 191.99 26.4185 188.85 29.8232ZM185.641 8.64617C183.388 6.2629 180.725 5.03722 177.584 5.03722C174.444 5.03722 171.713 6.2629 169.528 8.64617C167.275 11.1656 166.182 14.0936 166.182 17.4983C166.182 20.903 167.275 23.831 169.528 26.3504C171.781 28.8018 174.512 30.0275 177.584 30.0275C180.657 30.0275 183.388 28.8018 185.641 26.3504C187.826 23.8991 188.918 20.9711 188.918 17.4983C188.918 14.0936 187.826 11.0975 185.641 8.64617Z" fill="#DC272D"/>
</g>
<defs>
<clipPath id="clip0_1247:250">
<rect width="193.561" height="35" fill="white"/>
</clipPath>
</defs>
</svg>
